<svg width="40" height="41" viewBox="0 0 40 41" fill="none" xmlns="http://www.w3.org/2000/svg">
<rect x="0.5" y="1" width="39" height="39" rx="19.5" stroke="#7F7E97"/>
<path d="M29.4853 17.7598C29.2241 17.4321 28.8323 17.2442 28.4102 17.2442H24.6011L22.5355 12.5145C22.4075 12.2212 22.0659 12.0872 21.7726 12.2154C21.4793 12.3434 21.3454 12.685 21.4735 12.9783L23.3365 17.2442H16.4425L18.3055 12.9783C18.4335 12.685 18.2996 12.3435 18.0063 12.2154C17.7131 12.0872 17.3715 12.2212 17.2434 12.5145L15.1779 17.2442H11.3687C10.9466 17.2442 10.5548 17.4321 10.2936 17.7598C10.0372 18.0816 9.94264 18.4951 10.0341 18.8946L12.0682 27.7797C12.2103 28.4001 12.7591 28.8334 13.4029 28.8334H26.376C27.0198 28.8334 27.5686 28.4001 27.7107 27.7797L29.7449 18.8946C29.8363 18.4951 29.7417 18.0815 29.4853 17.7598ZM26.376 27.6745H13.4029C13.3045 27.6745 13.2183 27.6099 13.198 27.521L11.1638 18.636C11.1478 18.5663 11.1746 18.5138 11.1999 18.4821C11.2234 18.4526 11.2766 18.4031 11.3687 18.4031H14.6718L14.52 18.7507C14.3919 19.044 14.5258 19.3855 14.8191 19.5136C14.8946 19.5466 14.9733 19.5622 15.0507 19.5622C15.2741 19.5622 15.4869 19.4323 15.582 19.2146L15.9364 18.4032H23.8426L24.197 19.2146C24.2921 19.4324 24.505 19.5622 24.7283 19.5622C24.8057 19.5622 24.8844 19.5466 24.9599 19.5136C25.2532 19.3856 25.3871 19.044 25.259 18.7507L25.1073 18.4031H28.4103C28.5024 18.4031 28.5556 18.4526 28.5791 18.4821C28.6044 18.5139 28.6312 18.5663 28.6152 18.636L26.5811 27.5211C26.5607 27.6099 26.4744 27.6745 26.376 27.6745Z" fill="#7F7E97"/>
<path d="M16.4125 20.9141C16.0925 20.9141 15.833 21.1735 15.833 21.4935V25.7429C15.833 26.0629 16.0925 26.3224 16.4125 26.3224C16.7325 26.3224 16.9919 26.0629 16.9919 25.7429V21.4935C16.9919 21.1735 16.7325 20.9141 16.4125 20.9141Z" fill="#7F7E97"/>
<path d="M19.8895 20.9141C19.5695 20.9141 19.3101 21.1735 19.3101 21.4935V25.7429C19.3101 26.0629 19.5695 26.3224 19.8895 26.3224C20.2095 26.3224 20.4689 26.0629 20.4689 25.7429V21.4935C20.4689 21.1735 20.2095 20.9141 19.8895 20.9141Z" fill="#7F7E97"/>
<path d="M23.366 20.9141C23.046 20.9141 22.7866 21.1735 22.7866 21.4935V25.7429C22.7866 26.0629 23.046 26.3224 23.366 26.3224C23.6861 26.3224 23.9455 26.0629 23.9455 25.7429V21.4935C23.9455 21.1735 23.6861 20.9141 23.366 20.9141Z" fill="#7F7E97"/>
</svg>
