<svg width="17" height="16" viewBox="0 0 17 16" fill="none" xmlns="http://www.w3.org/2000/svg">
<g clip-path="url(#clip0_2_953)">
<path d="M10.5939 11.7778C10.2257 11.7778 9.92719 12.0763 9.92719 12.4445C9.92719 12.8126 10.2257 13.1111 10.5939 13.1111V11.7778ZM15.9272 13.1111C16.2954 13.1111 16.5939 12.8126 16.5939 12.4445C16.5939 12.0763 16.2954 11.7778 15.9272 11.7778V13.1111ZM13.9272 9.77778C13.9272 9.40961 13.6287 9.11112 13.2605 9.11112C12.8923 9.11112 12.5939 9.40961 12.5939 9.77778H13.9272ZM12.5939 15.1111C12.5939 15.4793 12.8923 15.7778 13.2605 15.7778C13.6287 15.7778 13.9272 15.4793 13.9272 15.1111H12.5939ZM10.5939 13.1111H13.2605V11.7778H10.5939V13.1111ZM15.9272 11.7778H13.2605V13.1111H15.9272V11.7778ZM13.9272 12.4445V9.77778H12.5939V12.4445H13.9272ZM12.5939 12.4445V15.1111H13.9272V12.4445H12.5939ZM2.37874 5.6889V1.42223H1.04541V5.6889H2.37874ZM2.37874 1.42223C2.37874 1.45759 2.3647 1.49151 2.33969 1.51651L1.39688 0.573701C1.17184 0.798745 1.04541 1.10397 1.04541 1.42223H2.37874ZM2.33969 1.51651C2.31469 1.54152 2.28077 1.55556 2.24541 1.55556V0.222229C1.92715 0.222229 1.62193 0.348657 1.39688 0.573701L2.33969 1.51651ZM2.24541 1.55556H6.51208V0.222229H2.24541V1.55556ZM6.51208 1.55556C6.47672 1.55556 6.44281 1.54152 6.41779 1.51651L7.3606 0.573701C7.13556 0.348657 6.83033 0.222229 6.51208 0.222229V1.55556ZM6.41779 1.51651C6.39279 1.4915 6.37874 1.45759 6.37874 1.42223H7.71208C7.71208 1.10397 7.58565 0.798745 7.3606 0.573701L6.41779 1.51651ZM6.37874 1.42223V5.6889H7.71208V1.42223H6.37874ZM6.37874 5.6889C6.37874 5.65354 6.39279 5.61962 6.41779 5.59461L7.3606 6.53742C7.58565 6.31238 7.71208 6.00715 7.71208 5.6889H6.37874ZM6.41779 5.59461C6.44281 5.56961 6.47672 5.55556 6.51208 5.55556V6.8889C6.83033 6.8889 7.13556 6.76247 7.3606 6.53742L6.41779 5.59461ZM6.51208 5.55556H2.24541V6.8889H6.51208V5.55556ZM2.24541 5.55556C2.28077 5.55556 2.31468 5.56961 2.33969 5.59461L1.39688 6.53742C1.62193 6.76247 1.92715 6.8889 2.24541 6.8889V5.55556ZM2.33969 5.59461C2.3647 5.61962 2.37874 5.65354 2.37874 5.6889H1.04541C1.04541 6.00715 1.17184 6.31238 1.39688 6.53742L2.33969 5.59461ZM2.37874 14.5778V10.3111H1.04541V14.5778H2.37874ZM2.37874 10.3111C2.37874 10.3465 2.3647 10.3804 2.33969 10.4054L1.39688 9.46258C1.17184 9.68765 1.04541 9.9929 1.04541 10.3111H2.37874ZM2.33969 10.4054C2.31468 10.4304 2.28077 10.4445 2.24541 10.4445V9.11112C1.92715 9.11112 1.62193 9.23752 1.39688 9.46258L2.33969 10.4054ZM2.24541 10.4445H6.51208V9.11112H2.24541V10.4445ZM6.51208 10.4445C6.47672 10.4445 6.44281 10.4304 6.41779 10.4054L7.3606 9.46258C7.13556 9.23752 6.83033 9.11112 6.51208 9.11112V10.4445ZM6.41779 10.4054C6.39279 10.3804 6.37874 10.3465 6.37874 10.3111H7.71208C7.71208 9.9929 7.58565 9.68765 7.3606 9.46258L6.41779 10.4054ZM6.37874 10.3111V14.5778H7.71208V10.3111H6.37874ZM6.37874 14.5778C6.37874 14.5424 6.39279 14.5085 6.41779 14.4835L7.3606 15.4263C7.58565 15.2013 7.71208 14.896 7.71208 14.5778H6.37874ZM6.41779 14.4835C6.44281 14.4585 6.47672 14.4445 6.51208 14.4445V15.7778C6.83033 15.7778 7.13556 15.6514 7.3606 15.4263L6.41779 14.4835ZM6.51208 14.4445H2.24541V15.7778H6.51208V14.4445ZM2.24541 14.4445C2.28077 14.4445 2.31468 14.4585 2.33969 14.4835L1.39688 15.4263C1.62193 15.6514 1.92715 15.7778 2.24541 15.7778V14.4445ZM2.33969 14.4835C2.3647 14.5085 2.37874 14.5424 2.37874 14.5778H1.04541C1.04541 14.896 1.17184 15.2013 1.39688 15.4263L2.33969 14.4835ZM11.2676 5.6889V1.42223H9.9343V5.6889H11.2676ZM11.2676 1.42223C11.2676 1.45759 11.2536 1.4915 11.2286 1.51651L10.2858 0.573701C10.0607 0.798745 9.9343 1.10397 9.9343 1.42223H11.2676ZM11.2286 1.51651C11.2035 1.54152 11.1697 1.55556 11.1343 1.55556V0.222229C10.8161 0.222229 10.5108 0.348657 10.2858 0.573701L11.2286 1.51651ZM11.1343 1.55556H15.401V0.222229H11.1343V1.55556ZM15.401 1.55556C15.3656 1.55556 15.3317 1.54152 15.3067 1.51651L16.2495 0.573701C16.0244 0.348657 15.7192 0.222229 15.401 0.222229V1.55556ZM15.3067 1.51651C15.2817 1.4915 15.2676 1.45759 15.2676 1.42223H16.601C16.601 1.10397 16.4746 0.798745 16.2495 0.573701L15.3067 1.51651ZM15.2676 1.42223V5.6889H16.601V1.42223H15.2676ZM15.2676 5.6889C15.2676 5.65354 15.2817 5.61962 15.3067 5.59461L16.2495 6.53742C16.4746 6.31238 16.601 6.00715 16.601 5.6889H15.2676ZM15.3067 5.59461C15.3317 5.56961 15.3656 5.55556 15.401 5.55556V6.8889C15.7192 6.8889 16.0244 6.76247 16.2495 6.53742L15.3067 5.59461ZM15.401 5.55556H11.1343V6.8889H15.401V5.55556ZM11.1343 5.55556C11.1697 5.55556 11.2035 5.56961 11.2286 5.59461L10.2858 6.53742C10.5108 6.76247 10.8161 6.8889 11.1343 6.8889V5.55556ZM11.2286 5.59461C11.2536 5.61962 11.2676 5.65354 11.2676 5.6889H9.9343C9.9343 6.00715 10.0607 6.31238 10.2858 6.53742L11.2286 5.59461Z" fill="#5BBCFF"/>
</g>
<defs>
<clipPath id="clip0_2_953">
<rect width="16" height="16" fill="white" transform="translate(0.823242)"/>
</clipPath>
</defs>
</svg>
