<svg width="70" height="71" viewBox="0 0 70 71" fill="none" xmlns="http://www.w3.org/2000/svg">
<rect y="0.780029" width="70" height="70" rx="35" fill="#1BCBE3"/>
<g clip-path="url(#clip0_2_116)">
<path d="M48.6966 28.2812C48.6966 28.2812 37.4058 23.2794 37.4028 23.2781C36.6403 22.9476 35.8319 22.78 35 22.78C34.1681 22.78 33.3597 22.9476 32.5972 23.2781C32.5942 23.2794 21.3034 28.2812 21.3034 28.2812C19.904 28.89 19 30.3021 19 31.88C19 33.4579 19.904 34.87 21.3034 35.4789L24 36.6734V44.88C24 47.0305 25.6823 48.78 27.75 48.78H42.25C44.3177 48.78 46 47.0305 46 44.88V41.4135C46 40.6955 45.4404 40.1135 44.75 40.1135C44.0596 40.1135 43.5 40.6955 43.5 41.4135V44.88C43.5 45.5968 42.9393 46.18 42.25 46.18H27.75C27.0608 46.18 26.5 45.5968 26.5 44.88V37.781C26.5 37.781 32.5942 40.4807 32.5972 40.482C33.3597 40.8124 34.1681 40.98 35 40.98C35.8318 40.98 36.6402 40.8124 37.4028 40.482C37.4058 40.4807 48.6966 35.4789 48.6966 35.4789C50.096 34.87 51 33.4579 51 31.88C51 30.3021 50.096 28.89 48.6966 28.2812ZM47.7301 33.081C47.7271 33.0823 36.4373 38.0836 36.4373 38.0836C35.9821 38.2803 35.4986 38.38 34.9999 38.38C34.5013 38.38 34.0178 38.2803 33.5627 38.0837C32.4414 37.5869 22.2728 33.0823 22.2698 33.081C21.8022 32.8783 21.5 32.4069 21.5 31.88C21.5 31.3531 21.8022 30.8818 22.2699 30.679C22.2729 30.6777 33.5627 25.6764 33.5627 25.6764C34.0178 25.4797 34.5014 25.38 35 25.38C35.4986 25.38 35.9822 25.4797 36.4373 25.6764C36.4373 25.6764 47.7271 30.6777 47.7301 30.679C48.1978 30.8818 48.5 31.3531 48.5 31.88C48.5 32.4069 48.1978 32.8783 47.7301 33.081Z" fill="white"/>
<path d="M49.75 37.941C49.0596 37.941 48.5 38.523 48.5 39.241V44.88C48.5 45.598 49.0596 46.18 49.75 46.18C50.4404 46.18 51 45.598 51 44.88V39.241C51 38.523 50.4404 37.941 49.75 37.941Z" fill="white"/>
</g>
<defs>
<clipPath id="clip0_2_116">
<rect width="32" height="26" fill="white" transform="translate(19 22.78)"/>
</clipPath>
</defs>
</svg>
