<svg width="70" height="71" viewBox="0 0 70 71" fill="none" xmlns="http://www.w3.org/2000/svg">
<rect y="0.780029" width="70" height="70" rx="35" fill="#5751E1"/>
<g clip-path="url(#clip0_2_126)">
<path d="M26.5116 44.28H43.4884C46.2519 44.28 48.5 42.0371 48.5 39.28V24.78C48.5 22.0229 46.2519 19.78 43.4884 19.78H26.5116C23.7481 19.78 21.5 22.0229 21.5 24.78V46.78C21.5 49.5371 23.7481 51.78 26.5116 51.78H43.4884C46.2519 51.78 48.5 49.5371 48.5 46.78C48.5 46.0896 47.9391 45.53 47.2471 45.53C46.5551 45.53 45.9942 46.0896 45.9942 46.78C45.9942 48.1584 44.87 49.28 43.4884 49.28H26.5116C25.13 49.28 24.0058 48.1584 24.0058 46.78C24.0058 45.4016 25.13 44.28 26.5116 44.28ZM24.0058 24.78C24.0058 23.4016 25.13 22.28 26.5116 22.28H43.4884C44.87 22.28 45.9942 23.4016 45.9942 24.78V39.28C45.9942 40.6584 44.87 41.78 43.4884 41.78H26.5116C25.5993 41.78 24.7434 42.0244 24.0058 42.4509V24.78ZM29.08 28.2175C29.08 27.5271 29.6409 26.9675 30.3329 26.9675H39.7297C40.4217 26.9675 40.9826 27.5271 40.9826 28.2175C40.9826 28.908 40.4217 29.4675 39.7297 29.4675H30.3329C29.6409 29.4675 29.08 28.908 29.08 28.2175Z" fill="white"/>
</g>
<defs>
<clipPath id="clip0_2_126">
<rect width="27" height="32" fill="white" transform="translate(21.5 19.78)"/>
</clipPath>
</defs>
</svg>
