<svg width="41" height="41" viewBox="0 0 41 41" fill="none" xmlns="http://www.w3.org/2000/svg">
<rect x="1.32324" y="1" width="39" height="39" rx="19.5" stroke="#7F7E97"/>
<g clip-path="url(#clip0_2_973)">
<path d="M20.5786 14.1113L19.6147 13.1205C17.352 10.7946 13.203 11.5972 11.7053 14.5214C11.0022 15.8968 10.8435 17.8825 12.1275 20.4168C13.3643 22.8569 15.9376 25.7797 20.5786 28.9634C25.2196 25.7797 27.7915 22.8569 29.0297 20.4168C30.3137 17.8812 30.1564 15.8968 29.4519 14.5214C27.9542 11.5972 23.8052 10.7933 21.5425 13.1191L20.5786 14.1113ZM20.5786 30.5834C-0.0356865 16.9616 14.2315 6.32972 20.342 11.9535C20.4226 12.0275 20.5019 12.1041 20.5786 12.1834C20.6544 12.1042 20.7334 12.0279 20.8152 11.9549C26.9243 6.32703 41.1929 16.9602 20.5786 30.5834Z" fill="#7F7E97"/>
</g>
<defs>
<clipPath id="clip0_2_973">
<rect width="22" height="22" fill="white" transform="translate(9.82324 9.5)"/>
</clipPath>
</defs>
</svg>
